<svg xmlns="http://www.w3.org/2000/svg" viewBox="0 0 512 512" fill="none" role="img" aria-labelledby="sift-mark-title">
  <title id="sift-mark-title">Sift tornado mark</title>
  <defs>
    <linearGradient id="sift-lime" x1="86" y1="77" x2="426" y2="452" gradientUnits="userSpaceOnUse">
      <stop stop-color="#C8FF4A"/>
      <stop offset="0.42" stop-color="#91F22E"/>
      <stop offset="1" stop-color="#45B916"/>
    </linearGradient>
    <linearGradient id="sift-depth" x1="123" y1="150" x2="360" y2="474" gradientUnits="userSpaceOnUse">
      <stop stop-color="#71DE20"/>
      <stop offset="1" stop-color="#176A35"/>
    </linearGradient>
  </defs>

  <g fill-rule="evenodd" clip-rule="evenodd">
    <path fill="url(#sift-depth)" d="M60 126c82-57 297-63 397-13 18 9 27 21 26 35-1 10-8 20-21 29 0-14-15-27-42-37-91-35-259-27-344 22-20 12-31 8-32-7-1-10 5-20 16-29Z"/>
    <path fill="url(#sift-lime)" d="M53 118c90-62 306-62 406-8 17 9 24 20 22 31-2 9-10 18-24 26-1-13-16-25-42-35-93-34-259-23-341 27-18 11-31 7-32-7-1-11 3-22 11-34Z"/>

    <path fill="url(#sift-depth)" d="M83 174c91 46 251 54 348 10 25-11 39-9 40 6 1 12-11 25-34 36-104 51-276 39-360-12-24-15-29-28-17-39 6-6 14-6 23-1Z"/>
    <path fill="url(#sift-lime)" d="M74 165c96 45 254 49 349 5 24-11 38-8 38 7 0 11-11 22-32 32-103 48-270 35-353-14-24-14-30-26-20-36 5-5 11-3 18 6Z"/>

    <path fill="url(#sift-depth)" d="M107 240c85 45 218 51 294 13 23-12 38-8 37 8-1 13-12 26-33 38-86 49-227 38-305-8-24-14-31-30-19-42 7-7 16-10 26-9Z"/>
    <path fill="url(#sift-lime)" d="M97 230c88 44 220 47 296 9 22-11 36-7 34 8-1 11-12 23-31 34-86 47-221 35-299-10-23-14-30-27-20-38 5-5 11-6 20-3Z"/>

    <path fill="url(#sift-depth)" d="M142 307c66 38 166 43 226 14 21-10 34-5 31 12-2 12-12 23-28 33-67 41-169 32-233-6-21-13-28-28-18-40 6-7 13-11 22-13Z"/>
    <path fill="url(#sift-lime)" d="M133 298c69 37 167 39 227 10 19-9 31-4 28 11-2 11-11 21-26 30-66 39-164 29-227-8-21-12-27-25-19-36 4-5 10-8 17-7Z"/>

    <path fill="url(#sift-depth)" d="M179 371c45 28 112 33 154 13 17-8 27-3 24 12-2 10-10 19-22 27-49 31-116 24-160-3-17-10-23-24-16-35 4-7 11-12 20-14Z"/>
    <path fill="url(#sift-lime)" d="M172 363c47 27 112 30 154 10 15-7 24-3 21 10-2 9-9 17-20 24-48 29-112 21-155-5-17-10-22-21-16-31 3-5 8-8 16-8Z"/>

    <path fill="url(#sift-depth)" d="M219 427c27 15 58 17 82 5 11-5 18 1 13 12-7 16-27 30-51 39-25-9-44-23-51-37-5-10-2-17 7-19Z"/>
    <path fill="url(#sift-lime)" d="M220 421c27 14 56 15 79 4 9-4 14 1 10 10-7 14-25 27-46 35-22-8-39-20-46-33-4-8-3-13 3-16Z"/>
  </g>
</svg>
